<svg width="14" height="18" viewBox="0 0 14 18" fill="none" xmlns="http://www.w3.org/2000/svg">
<path fill-rule="evenodd" clip-rule="evenodd" d="M7.00001 2.25C3.96245 2.25 1.50002 4.71243 1.50002 7.75C1.50002 8.16421 1.16423 8.5 0.750015 8.5C0.335802 8.5 1.53184e-05 8.16421 1.52588e-05 7.75C1.49012e-05 3.88401 3.13402 0.75 7.00001 0.75C10.866 0.75 14 3.88401 14 7.75C14 11.616 10.866 14.75 7.00002 14.75C6.75475 14.75 6.51232 14.7374 6.27336 14.7127L7.53035 15.9697C7.82324 16.2626 7.82324 16.7374 7.53035 17.0303C7.23745 17.3232 6.76258 17.3232 6.46969 17.0303L3.71969 14.2803C3.57903 14.1397 3.50002 13.9489 3.50002 13.75C3.50002 13.5511 3.57903 13.3603 3.71969 13.2197L3.8766 13.0628C3.93212 12.9796 4.00258 12.9102 4.0827 12.8567L6.46969 10.4697C6.76258 10.1768 7.23745 10.1768 7.53035 10.4697C7.82324 10.7626 7.82324 11.2374 7.53035 11.5303L5.91711 13.1436C6.2669 13.2134 6.62896 13.25 7.00002 13.25C10.0376 13.25 12.5 10.7876 12.5 7.75C12.5 4.71243 10.0376 2.25 7.00001 2.25Z" fill="black"/>
</svg>
